<svg xmlns="http://www.w3.org/2000/svg" data-name="Layer 1" viewBox="0 0 128 128"><path d="M64,0a64,64,0,1,0,64,64A64.07,64.07,0,0,0,64,0ZM28,36.42V99H24V36.43a4,4,0,1,1,4,0Zm83,.14V75.19a1.92,1.92,0,0,1-.36,1.13c-.26.38-6.56,9.28-20,9.28a35.3,35.3,0,0,1-9.9-1.51C76,82.68,72,79.86,66.94,79.21a29,29,0,0,0-12.09,1.33c-4.28,1.29-8.19,3.33-12.35,4.89a9.5,9.5,0,0,1-3.07.57,4.18,4.18,0,0,1-4.34-2.91A2,2,0,0,1,35,82.5v-40a2,2,0,0,1,.78-1.59,45.15,45.15,0,0,1,26.35-8.43,49.56,49.56,0,0,1,21.15,4.93c4.49,2.11,9.32.84,13.55-1.27,1.14-.58,2.26-1.2,3.38-1.81,2-1.12,4.26-2.31,6.66-2.31C108.87,32,111,33.2,111,36.56Z"/><path d="M100.74,38.58c-.7.38-1.41.76-2.12,1.11a23.43,23.43,0,0,1-10.31,2.83A15.71,15.71,0,0,1,81.58,41a45.58,45.58,0,0,0-19.45-4.55A41.29,41.29,0,0,0,39,43.5V82a1.92,1.92,0,0,0,.43,0,6,6,0,0,0,1.68-.31c2.31-.84,4.52-2,6.78-2.94a54,54,0,0,1,7.19-2.48,31.29,31.29,0,0,1,22.69,2.19A28,28,0,0,0,90.68,81.6,21.1,21.1,0,0,0,107,74.5V36.56a2.78,2.78,0,0,0,0-.56h-.08C104.84,36,102.42,37.68,100.74,38.58Z"/></svg>